<?xml version="1.0" encoding="UTF-8" standalone="no"?>
<!-- Generator: Adobe Illustrator 13.0.0, SVG Export Plug-In . SVG Version: 6.00 Build 14948)  -->

<svg
   xmlns:dc="http://purl.org/dc/elements/1.1/"
   xmlns:cc="http://creativecommons.org/ns#"
   xmlns:rdf="http://www.w3.org/1999/02/22-rdf-syntax-ns#"
   xmlns:svg="http://www.w3.org/2000/svg"
   xmlns="http://www.w3.org/2000/svg"
   xmlns:sodipodi="http://sodipodi.sourceforge.net/DTD/sodipodi-0.dtd"
   xmlns:inkscape="http://www.inkscape.org/namespaces/inkscape"
   version="1.0"
   id="Layer_1"
   x="0px"
   y="0px"
   width="693.615px"
   height="419.375px"
   viewBox="0 0 693.615 419.375"
   enable-background="new 0 0 693.615 419.375"
   xml:space="preserve"
   inkscape:version="0.91 r13725"
   sodipodi:docname="Star_Wars_Logo.svg"><metadata
     id="metadata4169"><rdf:RDF><cc:Work
         rdf:about=""><dc:format>image/svg+xml</dc:format><dc:type
           rdf:resource="http://purl.org/dc/dcmitype/StillImage" /></cc:Work></rdf:RDF></metadata><defs
     id="defs4167" /><sodipodi:namedview
     pagecolor="#ffffff"
     bordercolor="#666666"
     borderopacity="1"
     objecttolerance="10"
     gridtolerance="10"
     guidetolerance="10"
     inkscape:pageopacity="0"
     inkscape:pageshadow="2"
     inkscape:window-width="1920"
     inkscape:window-height="1046"
     id="namedview4165"
     showgrid="false"
     inkscape:zoom="1.789177"
     inkscape:cx="376.19796"
     inkscape:cy="159.26369"
     inkscape:window-x="-11"
     inkscape:window-y="-11"
     inkscape:window-maximized="1"
     inkscape:current-layer="Layer_1" /><g
     id="g4754"
     style="stroke:#000000;stroke-opacity:1;stroke-width:3;stroke-miterlimit:4;stroke-dasharray:none"><path
       inkscape:connector-curvature="0"
       id="path4735"
       d="m 38.397536,181.96711 0,-15.97729 48.821308,0 48.821306,0 2.36252,-1.7114 c 4.19666,-3.04004 5.19906,-8.13836 2.3684,-12.04597 -0.87168,-1.20332 -5.30534,-6.45994 -9.85258,-11.68137 -14.28665,-16.40485 -15.73706,-19.08531 -15.23531,-28.15586 0.36877,-6.66656 1.8382,-11.06602 5.54936,-16.614651 5.07236,-7.583817 12.21458,-12.113525 20.62452,-13.080402 2.82314,-0.324572 40.46276,-0.540979 94.53654,-0.543532 l 89.84578,-0.0042 0,13.972905 0,13.972901 -28.50473,0 -28.50473,0 0,43.87492 0,43.87493 -17.04694,0 -17.04694,0 0,-43.87493 0,-43.87492 -23.61421,0.0606 c -12.98782,0.0333 -29.06484,0.22198 -35.72673,0.41919 -11.91937,0.35283 -12.13634,0.38083 -13.60682,1.75584 -2.17771,2.03632 -3.06485,4.07311 -3.06485,7.03661 0,3.39909 1.26658,5.44585 11.72854,18.95299 10.1991,13.16777 13.85682,18.29949 15.18761,21.30797 3.7371,8.44834 -0.082,22.13235 -8.34673,29.90635 -4.25727,4.00451 -8.4741,6.29266 -13.32438,7.23013 -2.27738,0.44017 -22.15373,0.71883 -64.629882,0.90607 l -61.341052,0.2704 0,-15.97728 z"
       style="fill:#000000;fill-opacity:1;stroke:#000000;stroke-width:3;stroke-linecap:butt;stroke-linejoin:miter;stroke-miterlimit:4;stroke-dasharray:none;stroke-opacity:1" /><path
       inkscape:connector-curvature="0"
       id="path4737"
       d="m 142.93322,302.22565 c -6.57402,-19.1359 -12.12029,-34.99185 -12.32505,-35.23546 -0.32312,-0.38443 -3.92654,9.25692 -22.09926,59.12912 l -3.46224,9.50158 -11.359809,0 -11.35981,0 -19.394837,-57.00945 -19.394836,-57.00946 15.958756,-0.14843 c 8.777316,-0.0816 16.047249,-0.06 16.155406,0.0482 0.108157,0.10815 3.994048,10.86422 8.635314,23.90237 4.641266,13.03815 8.693807,24.41023 9.005647,25.27128 0.31184,0.86105 0.695852,1.43668 0.853359,1.27917 0.157507,-0.1575 4.24816,-11.55127 9.09034,-25.31948 l 8.80397,-25.03312 18.28508,0 18.2851,0 6.84145,19.84153 c 6.62525,19.21449 9.83419,27.92876 10.89203,29.57864 0.39256,0.61227 0.69462,0.35108 1.31724,-1.13906 0.65392,-1.56505 9.07221,-25.46174 15.58092,-44.22896 l 1.30841,-3.77269 16.07071,0 c 8.83888,0 16.07069,0.20762 16.07069,0.46137 0,0.39929 -31.72015,93.12918 -37.26736,108.94648 l -2.00915,5.72889 -11.26466,0 -11.26465,0 -11.95276,-34.79253 z"
       style="fill:#000000;fill-opacity:1;stroke:#000000;stroke-width:3;stroke-linecap:butt;stroke-linejoin:miter;stroke-miterlimit:4;stroke-dasharray:none;stroke-opacity:1" /><path
       inkscape:connector-curvature="0"
       id="path4741"
       d="m 428.19554,198.58371 c -0.84291,-0.16653 -1.41054,-1.03182 -2.05832,-3.13766 -0.49196,-1.59923 -1.68614,-5.48792 -2.65374,-8.64152 l -1.75929,-5.73381 -29.41887,0.14465 -29.41888,0.14465 -2.50226,8.24401 -2.50225,8.24402 -16.38019,0 c -9.00911,0 -16.3802,-0.15266 -16.3802,-0.33923 0,-0.18658 8.84174,-25.96659 19.6483,-57.28891 l 19.6483,-56.949684 27.52881,0 27.52881,0 1.1005,3.213768 c 0.60529,1.767573 9.55706,27.662996 19.89284,57.545396 10.33578,29.88239 18.79233,54.46771 18.79233,54.63405 0,0.3457 -29.29305,0.27052 -31.06589,-0.0797 z m -23.21321,-65.15076 c -4.32284,-12.68041 -8.66252,-25.40028 -9.64373,-28.26638 -0.98122,-2.86609 -2.00026,-5.25546 -2.26454,-5.309699 -0.26428,-0.05424 -2.21283,4.680119 -4.33011,10.520789 -4.28346,11.81626 -15.24499,42.8935 -15.82051,44.85303 l -0.36935,1.25756 20.14398,0 20.14397,0 -7.85971,-23.0553 z"
       style="fill:#000000;fill-opacity:1;stroke:#000000;stroke-width:3;stroke-linecap:butt;stroke-linejoin:miter;stroke-miterlimit:4;stroke-dasharray:none;stroke-opacity:1" /><path
       inkscape:connector-curvature="0"
       id="path4739"
       d="m 231.86648,335.49334 c -10.04413,-0.13299 -12.99144,-0.33133 -12.7938,-0.861 0.14123,-0.37851 9.03215,-26.15248 19.75758,-57.27548 l 19.5008,-56.58728 27.31054,0.13675 27.31055,0.13674 19.75348,56.72999 c 10.86442,31.2015 19.76458,57.04439 19.77815,57.42864 0.0192,0.54338 -3.54643,0.69772 -16.04418,0.69448 l -16.06884,-0.004 -2.46512,-8.07257 c -1.35582,-4.43992 -2.61633,-8.31725 -2.80114,-8.61627 -0.20903,-0.33823 -11.42275,-0.59656 -29.67256,-0.68358 l -29.33655,-0.14014 -2.59812,8.62059 -2.59813,8.6206 -2.99103,0.0226 c -1.64507,0.0125 -8.86381,-0.0551 -16.04163,-0.15016 l 0,-2e-5 z m 73.54007,-42.30555 c 0.27057,-0.23798 -18.59258,-55.64197 -18.94661,-55.64911 -0.20671,-0.004 -0.68604,0.93559 -1.06516,2.08835 -0.37912,1.15277 -4.91512,13.644 -10.07999,27.7583 -5.16487,14.11431 -9.29388,25.81899 -9.17557,26.01042 0.18532,0.29986 38.92323,0.0947 39.26733,-0.20796 z"
       style="fill:#000000;fill-opacity:1;stroke:#000000;stroke-width:3;stroke-linecap:butt;stroke-linejoin:miter;stroke-miterlimit:4;stroke-dasharray:none;stroke-opacity:1" /><path
       inkscape:connector-curvature="0"
       id="path4743"
       d="m 386.04341,279.72927 0,-57.28891 41.54985,0 c 39.52369,0 41.76,0.0538 45.85934,1.10218 10.76401,2.75297 20.38237,10.47787 25.68765,20.63079 4.20665,8.05044 4.8428,14.95135 2.10365,22.82039 -0.87892,2.52496 -2.37273,5.79462 -3.31958,7.26591 -3.21279,4.99228 -10.36239,11.14534 -16.54126,14.23565 -3.5237,1.76236 -5.35414,3.09079 -5.35414,3.88575 0,0.95955 7.57398,8.44101 9.96241,9.84074 2.34394,1.37363 3.09868,1.48624 12.61365,1.88187 14.38687,0.5982 58.05222,0.56792 65.97976,-0.0458 7.40063,-0.57289 8.8126,-1.18379 10.48523,-4.53652 1.18757,-2.38046 1.24685,-4.56852 0.17969,-6.63219 -1.23836,-2.39471 -6.70428,-9.08584 -12.80477,-15.675 -6.22351,-6.72204 -10.29997,-12.48674 -12.13221,-17.15668 -1.06198,-2.70673 -1.27295,-4.3079 -1.27429,-9.6713 -0.001,-5.62935 0.18212,-6.89676 1.47789,-10.20601 3.60523,-9.20733 10.75177,-15.47686 20.66238,-18.12672 3.07969,-0.82344 8.30437,-0.96042 43.6012,-1.14315 l 40.10224,-0.20761 0,15.1212 0,15.1212 -29.58264,0 c -27.1674,0 -29.66068,0.0781 -30.53857,0.95594 -1.3251,1.3251 -2.47741,4.26459 -2.47741,6.31978 0,3.12505 1.40828,5.21339 15.06958,22.34684 12.91525,16.19779 13.69151,17.67437 13.66312,25.98961 -0.0204,5.96173 -1.31793,10.23 -4.7731,15.70087 -2.58207,4.08843 -8.34715,9.5509 -12.01136,11.3809 -6.09512,3.04404 -6.73844,3.07231 -70.07552,3.07905 -44.66631,0.005 -58.94406,-0.15572 -60.69074,-0.68214 -5.18625,-1.56306 -13.08209,-7.90625 -31.53215,-25.3316 -14.79572,-13.97398 -19.04976,-17.84053 -19.62839,-17.84053 -0.27361,0 -0.49087,9.77171 -0.49087,22.07719 l 0,22.07719 -17.88532,0 -17.88532,0 0,-57.28891 z m 73.19948,-6.47578 c 6.57894,-1.41093 11.42086,-7.19033 11.39013,-13.59548 -0.0113,-2.36214 -0.40581,-4.21886 -1.28953,-6.06947 -1.52603,-3.19567 -5.54302,-6.88922 -8.32914,-7.65851 -1.10945,-0.30633 -10.34225,-0.72614 -20.51735,-0.93291 l -18.50018,-0.37594 -0.35597,13.88939 c -0.19578,7.63917 -0.22633,14.01903 -0.0679,14.17746 1.14279,1.1428 32.7646,1.61747 37.66993,0.56546 z"
       style="fill:#000000;fill-opacity:1;stroke:#000000;stroke-width:3;stroke-linecap:butt;stroke-linejoin:miter;stroke-miterlimit:4;stroke-dasharray:none;stroke-opacity:1" /><path
       inkscape:connector-curvature="0"
       id="path4745"
       d="m 490.88756,140.51286 0,-57.335187 44.29411,0.215383 44.29411,0.215383 4.51515,1.501663 c 5.65706,1.881438 10.1566,4.793099 14.57363,9.430628 6.24852,6.56044 8.15097,10.55792 9.10949,19.14109 0.97856,8.76267 -0.74378,16.07689 -5.39073,22.89264 -3.08798,4.52917 -7.1468,8.04833 -13.94603,12.09174 -8.19373,4.87271 -7.56819,4.34775 -6.82821,5.73043 1.01455,1.8957 6.00866,6.9809 9.0443,9.20928 l 2.73747,2.00948 30.79896,0.4929 c 16.93942,0.27109 30.83746,0.54397 30.88453,0.6064 0.0471,0.0624 0.22259,7.09297 0.39005,15.62343 l 0.30447,15.50993 -31.669,-0.0305 c -17.41796,-0.0168 -35.23997,-0.23672 -39.60447,-0.48877 -7.05195,-0.40724 -8.20317,-0.61749 -10.33995,-1.88838 -5.18777,-3.08552 -12.90426,-9.83009 -33.31977,-29.12305 -6.85907,-6.48196 -12.70673,-11.86919 -12.9948,-11.97165 -0.31997,-0.11382 -0.52375,8.31277 -0.52375,21.658 l 0,21.84431 -18.16478,0 -18.16478,0 0,-57.33519 z m 75.29312,-6.33521 c 2.83345,-0.81262 6.19357,-3.8913 7.77513,-7.12388 1.25083,-2.55661 1.42138,-3.52644 1.23568,-7.02647 -0.26695,-5.03123 -1.60589,-7.89238 -4.83523,-10.33233 -4.40892,-3.33118 -6.73719,-3.66399 -26.0922,-3.72976 l -17.3264,-0.0589 -0.14917,14.39209 -0.14916,14.3921 18.87655,0 c 10.3821,0 19.68126,-0.23079 20.6648,-0.51287 z"
       style="fill:#000000;fill-opacity:1;stroke:#000000;stroke-width:3;stroke-linecap:butt;stroke-linejoin:miter;stroke-miterlimit:4;stroke-dasharray:none;stroke-opacity:1" /></g><g
     id="g4762"><path
       fill="#FFE81F"
       id="path4143"
       d="M148.718,221.207l8.67,25.461c4.691,13.768,8.879,24.779,9.425,24.779c0.009,0,0.017-0.004,0.024-0.01    c0.6-0.53,17.57-49.811,17.57-49.811h32.89l-39.68,115.619h-22.86c0,0-24.4-70.471-24.3-70.739l-25.47,69.851h-22.63    l-39.18-115.15l32.73,0.021c0,0,17.929,50.821,18.168,50.821c0.001,0,0.001-0.001,0.002-0.002l17.89-50.841H148.718 M32.003,213.2    l3.601,10.584l39.18,115.149l1.845,5.424h5.729h22.63h5.598l1.918-5.26l17.685-48.5c1.524,4.434,3.171,9.213,4.818,13.988    c6.089,17.655,12.191,35.277,12.191,35.277l1.864,5.383h5.696h22.86h5.712l1.854-5.403l39.68-115.618l3.637-10.598h-11.204h-32.89    h-5.706l-1.858,5.396c-2.974,8.635-6.921,20.031-10.296,29.676c-0.509-1.463-1.039-3.001-1.587-4.611l-8.669-25.46l-1.846-5.421    h-5.727h-36.75h-5.666l-1.881,5.345l-10.453,29.706c-3.453-9.706-7.456-21.017-10.516-29.691l-1.882-5.334l-5.657-0.004    l-32.73-0.021L32.003,213.2L32.003,213.2z" /><path
       fill="#FFE81F"
       id="path4147"
       d="M655.258,220.758l-0.075,30.305c0,0-32.643-0.109-49.239-0.109c-5.521,0-9.266,0.013-9.444,0.045    c-2.86,0.521-4.681,6.602-3.87,9.271c0.399,1.35,3.391,5.76,6.63,9.81c3.229,4.051,8.54,10.681,11.78,14.729    c8.319,10.381,9.46,12.43,10.229,18.391c1.25,9.681-3.329,20.16-11.829,27.07c-8.518,6.93-8.145,6.979-71.383,6.979    c-0.916,0-1.835,0-2.777,0c-38.46-0.01-58.8-0.329-61.761-0.989c-5.26-1.19-13.64-8.03-35.79-29.28    c-7.967-7.636-15.309-14.322-15.686-14.324c-0.01,0-0.015,0.006-0.015,0.016l-0.261,44.579l-35.899-0.159l-0.221-114.98h45.271    h34.79c24.13,0.871,40.46,24.91,37.21,40.24c-0.74,3.479-2.62,8.521-4.181,11.2c-3.21,5.5-11.38,12.56-18.011,15.591    c-2.449,1.108-4.449,2.398-4.449,2.858c0,1.71,8.061,9.649,11.08,10.91c2.579,1.079,10.09,1.319,43.21,1.319    c3.882,0,7.408,0.002,10.608,0.002c33.293,0,31.618-0.24,34.19-5.741c1.801-3.83,0.431-6.12-12.239-20.39    c-16.051-15.971-14.37-23.621-14.48-29.271c-0.229-6.77,5.102-28.069,32.812-28.069L655.258,220.758 M440.188,273.878    c15.37,0,18.49-0.239,21.761-1.66c11.04-4.8,11.63-18.979,1.04-25.271c-2.319-1.381-5.3-1.609-21.96-1.7l-19.279-0.101    c0.159,0.15-0.061,27.57-0.061,27.57S426.518,273.878,440.188,273.878 M663.277,212.758h-8.021h-73.8    c-16.032,0-25.515,6.328-30.646,11.637c-8.347,8.633-10.313,19.504-10.162,24.629c0.008,0.427,0.003,0.865-0.002,1.322    c-0.073,8.329,1.154,17.758,16.659,33.246c3.065,3.452,8.193,9.239,10.131,12.115c-4.238,0.521-14.98,0.521-26.262,0.521h-4.792    l-5.816-0.002c-19.904,0-36.688-0.057-40.128-0.736c-0.481-0.314-1.156-0.854-1.898-1.498c6.877-4.235,13.83-10.799,17.104-16.412    c1.987-3.413,4.178-9.243,5.098-13.568c2.04-9.625-1.325-21.236-9.001-31.068c-8.956-11.471-21.985-18.334-35.746-18.83    l-0.145-0.006h-0.145h-34.79h-45.271h-8.016l0.016,8.017l0.221,114.979l0.016,7.949l7.949,0.035l35.899,0.159l7.988,0.035    l0.047-7.988l0.155-26.706c0.733,0.696,1.491,1.419,2.269,2.165c24.227,23.24,32.359,29.679,39.562,31.308    c1.979,0.441,5.253,1.172,63.523,1.188h2.779c31.546,0,47.38,0,56.799-0.91c10.789-1.043,14.259-3.49,19.461-7.725l0.173-0.141    c10.685-8.687,16.323-21.83,14.715-34.3c-1.048-8.11-3.194-11.479-11.922-22.368l-2.594-3.24    c-3.04-3.799-6.713-8.387-9.175-11.475c-1.986-2.484-3.546-4.689-4.487-6.133c1.236-0.003,2.841-0.005,4.918-0.005    c16.395,0,48.887,0.108,49.213,0.11l8.008,0.026l0.02-8.008l0.075-30.306L663.277,212.758L663.277,212.758z M429.739,265.586    c0.013-2.021,0.025-4.287,0.038-6.557c0.01-2,0.019-4.004,0.022-5.84l11.187,0.058c6.429,0.035,16.103,0.088,17.989,0.623    c2.407,1.461,3.75,3.72,3.604,6.06c-0.08,1.264-0.682,3.588-3.821,4.951c-1.75,0.76-4.54,0.997-18.57,0.997    C435.738,265.878,432.305,265.749,429.739,265.586L429.739,265.586z" /><path
       fill="#FFE81F"
       id="path4151"
       d="M312.908,220.287l40.29,115.92l-32.83,0.15l-5.45-17.41l-58.7-0.471l-5.18,17.431l-32.5-0.341    l39.78-115.229L312.908,220.287 M286.507,237.283c-0.083,0.333-5.144,14.219-10.222,28.104c-5.12,14-10.257,28-10.328,28.109    c0,0.001-0.001,0.001,0,0.001l0,0c0,0,0,0,0-0.001c0.136-0.04,18.316-0.08,29.968-0.08c5.453,0,9.475,0.009,9.55,0.029    c0.001,0.004,0.001,0.005,0.001,0.005s0-0.001,0-0.003c0,0,0,0-0.001-0.002C305.271,292.916,286.566,237.959,286.507,237.283    c0.001-0.004,0.001-0.006,0.001-0.006l0,0C286.507,237.277,286.507,237.279,286.507,237.283 M318.595,212.282l-5.693,0.005    l-54.59,0.051l-5.696,0.005l-1.859,5.386l-39.78,115.229l-3.623,10.494l11.102,0.115l32.5,0.341l6.033,0.063l1.719-5.782    l3.466-11.662l46.854,0.375l3.708,11.848l1.765,5.638l5.907-0.026l32.829-0.15l11.195-0.052l-3.676-10.574l-40.29-115.92    L318.595,212.282L318.595,212.282z M277.472,285.424c1.515-4.129,3.556-9.71,6.327-17.289c0.869-2.376,1.664-4.551,2.393-6.545    c0.663,1.956,1.385,4.084,2.169,6.398c0.646,1.906,3.485,10.27,5.92,17.428C287.041,285.416,281.591,285.417,277.472,285.424    L277.472,285.424z" /><path
       fill="#FFE81F"
       id="path4155"
       d="M326.488,81.928v28.6h-57.28v87.47h-34.15v-87.54l-66.86,0.19c-8.06,0-9.14,6.42-9.14,8.88    c0,3.02,1.97,6.04,12.79,19.74c7.02,8.9,13.47,17.78,14.32,19.72c4.64,10.68-1.36,27.32-12.29,34.08    c-7.79,4.813-6.459,4.931-64.308,4.931c-2.974,0-6.096,0-9.392,0h-62.27v-32.13h97.9l2.89-2.01c1.95-1.36,3.08-3.23,3.51-5.79    c0.6-3.68,0.29-4.16-11.8-17.78c-14.29-16.1-15.8-19.04-15.06-29.32c0.84-11.73,11.3-28.77,29.58-28.77L326.488,81.928     M334.488,73.916l-8.013,0.012l-181.56,0.27c-10.458,0-20.171,4.518-27.342,12.722c-5.814,6.652-9.63,15.429-10.206,23.477    c-0.973,13.511,2.137,18.393,17.056,35.202c4.33,4.877,8.447,9.516,9.821,11.486c-0.022,0.079-0.042,0.13-0.054,0.159    c-0.015,0.012-0.038,0.03-0.07,0.052l-0.822,0.572H37.908h-8v8v32.13v8h8h62.27h4.937h4.455c28.522,0,42.6-0.027,50.894-0.635    c9.49-0.695,12.518-2.323,17.054-5.14l0.566-0.351c14.262-8.821,21.612-29.827,15.422-44.074    c-1.91-4.358-14.003-19.746-15.376-21.486c-3.796-4.807-10.062-12.74-11.054-15.036c0.024-0.193,0.071-0.393,0.121-0.532    c0.165-0.042,0.481-0.098,1.001-0.098l58.86-0.167v79.517v8h8h34.15h8v-8v-79.47h49.28h8v-8v-28.6V73.916L334.488,73.916z" /><path
       fill="#FFE81F"
       id="path4159"
       d="M419.548,82.857l40.18,116.22l-32.77-0.18l-5.32-17.41l-58.439-0.26l-5.221,16.77h-33.369l39.739-115.14    H419.548 M372.737,156.478l39.801-0.05c0.001,0,0.001,0.001,0.001,0.001c0.136,0-19.342-57.201-19.472-57.241l0,0    C392.925,99.183,372.288,156.478,372.737,156.478 M425.247,74.857h-5.699h-55.2h-5.701l-1.86,5.39l-39.74,115.141l-3.662,10.61    h11.225h33.37h5.889l1.75-5.623l3.461-11.121l46.632,0.207l3.599,11.774l1.721,5.629l5.887,0.033l32.77,0.18l11.297,0.062    l-3.691-10.676l-40.18-116.22L425.247,74.857L425.247,74.857z M383.851,148.464c2.468-7.027,5.904-16.657,9.014-25.312    c2.948,8.644,6.209,18.245,8.588,25.29L383.851,148.464L383.851,148.464z" /><path
       fill="#FFE81F"
       id="path4163"
       d="M532.396,82.857c25.921,0,43.91,0.37,47.37,0.97c8,1.39,15.23,5.66,20.65,12.22    c5.67,6.86,6.97,10.14,7.71,19.54c1.061,13.27-5.25,24.72-17.7,32.15c-3.63,2.17-7.359,4.28-8.29,4.7    c-1.43,0.65-1.239,1.27,1.32,4.27c1.649,1.93,4.51,4.68,6.35,6.11l3.36,2.61l62.08,0.89l0.609,31.68h-38.061    c-29.439,0-38.86-0.27-41.62-1.2c-4.13-1.4-14.069-9.82-34.271-29.04l-14.42-13.72l0.152,43.96h-37.043V82.857H532.396     M526.938,134.627h19.671c19.141,0,19.739-0.06,22.47-2.11c4.881-3.66,6.609-7.43,6.091-13.22c-0.53-5.97-2.83-9.08-8.601-11.58    c-3.25-1.42-6.381-1.65-21.721-1.65h-17.91V134.627 M532.396,74.857h-41.8h-8v8v115.14v8h8h37.043h8.028l-0.028-8.028    l-0.088-25.216l0.84,0.799c24.986,23.773,32.356,29.173,37.218,30.821c3.733,1.259,9.982,1.624,44.188,1.624h38.061h8.154    l-0.156-8.154l-0.609-31.68l-0.148-7.734l-7.734-0.111l-59.402-0.851l-1.245-0.967c-0.396-0.309-0.876-0.717-1.389-1.179    c0.446-0.264,0.854-0.507,1.207-0.717c15.003-8.953,22.866-23.407,21.569-39.653c-0.863-10.959-2.82-15.896-9.52-24    c-6.584-7.969-15.621-13.298-25.447-15.005C575.678,74.999,548.257,74.857,532.396,74.857L532.396,74.857z M534.938,114.067h9.91    c14.027,0,16.806,0.233,18.518,0.981c3.25,1.408,3.58,2.091,3.835,4.957c0.256,2.848-0.097,3.994-2.922,6.112    c-0.093,0.069-0.164,0.123-0.223,0.166c-1.865,0.345-8.786,0.345-17.447,0.345h-11.67L534.938,114.067L534.938,114.067z" /></g></svg>