<?xml version="1.0" encoding="UTF-8" standalone="no"?>
<svg
   xmlns:dc="http://purl.org/dc/elements/1.1/"
   xmlns:cc="http://creativecommons.org/ns#"
   xmlns:rdf="http://www.w3.org/1999/02/22-rdf-syntax-ns#"
   xmlns:svg="http://www.w3.org/2000/svg"
   xmlns="http://www.w3.org/2000/svg"
   version="1.0"
   id="keyb1"
   height="300"
   width="900">

  <g
     id="layer1">
    <g
       id="q">
      <path
         style="fill:#000000;fill-opacity:0;fill-rule:evenodd;stroke:#000000;stroke-width:1;stroke-linecap:butt;stroke-linejoin:miter;stroke-miterlimit:4;stroke-dashoffset:0;stroke-opacity:1"
         d="m 105,120 60,0 0,60 -60,0 0,-60 z"
         id="rect2292" />
      <path
         style="font-style:normal;font-variant:normal;font-weight:bold;font-stretch:normal;font-size:24px;line-height:125%;font-family:'Swis721 BT';text-align:center;writing-mode:lr-tb;text-anchor:middle;fill:#000000;fill-opacity:1;stroke:none;stroke-width:1px;stroke-linecap:butt;stroke-linejoin:miter;stroke-opacity:1"
         d="m 130.51172,146.13333 -1.82812,-1.78125 1.94531,-2.01563 1.875,1.82813 c 0.24998,-0.46875 0.44139,-1.0039 0.57422,-1.60547 0.13279,-0.60156 0.1992,-1.2578 0.19922,-1.96875 -2e-5,-1.89843 -0.4258,-3.37108 -1.27735,-4.41797 -0.85157,-1.05467 -2.04298,-1.58202 -3.57422,-1.58203 -1.51563,1e-5 -2.69532,0.52345 -3.53906,1.57031 -0.84376,1.04689 -1.26563,2.52345 -1.26562,4.42969 -1e-5,1.89844 0.42186,3.375 1.26562,4.42969 0.84374,1.04688 2.02343,1.57031 3.53906,1.57031 0.39062,0 0.7578,-0.0391 1.10157,-0.11719 0.35155,-0.0781 0.67967,-0.1914 0.98437,-0.33984 m 2.49609,2.35547 c -0.58595,0.39062 -1.26954,0.6875 -2.05078,0.89062 -0.77345,0.20313 -1.6172,0.30469 -2.53125,0.30469 -2.57813,0 -4.62891,-0.82031 -6.15234,-2.46094 C 120.75781,145.58255 120,143.37162 120,140.59036 c 0,-2.78905 0.75781,-4.99999 2.27344,-6.63281 1.52343,-1.64061 3.57421,-2.46092 6.15234,-2.46094 2.57812,2e-5 4.62889,0.82033 6.15235,2.46094 1.53123,1.64064 2.29685,3.85157 2.29687,6.63281 -2e-5,1.21876 -0.15627,2.33594 -0.46875,3.35156 -0.31252,1.00782 -0.77345,1.89063 -1.38281,2.64844 l 1.875,1.79297 -1.92188,2.01562 -1.96875,-1.91015"
         id="text5474" />
    </g>
    <g
       id="w">
      <path
         style="fill:#000000;fill-opacity:0;fill-rule:evenodd;stroke:#000000;stroke-width:1;stroke-linecap:butt;stroke-linejoin:miter;stroke-miterlimit:4;stroke-dashoffset:0;stroke-opacity:1"
         d="m 135,180 60,0 0,60 -60,0 0,-60 z"
         id="rect2324" />
      <path
         style="font-style:normal;font-variant:normal;font-weight:bold;font-stretch:normal;font-size:24px;line-height:125%;font-family:'Swis721 BT';text-align:center;writing-mode:lr-tb;text-anchor:middle;fill:#000000;fill-opacity:1;stroke:none;stroke-width:1px;stroke-linecap:butt;stroke-linejoin:miter;stroke-opacity:1"
         d="m 153.02922,209.41594 -4.94532,-17.26172 3.67969,0 2.95313,12.17578 2.49609,-12.17578 3.78516,0 2.49609,12.17578 2.95313,-12.17578 3.64453,0 -4.9336,17.26172 -3.38672,0 -2.67187,-13.21875 -2.68359,13.21875 -3.38672,0"
         id="text5482" />
    </g>
    <g
       id="e">
      <path
         style="fill:#000000;fill-opacity:0;fill-rule:evenodd;stroke:#000000;stroke-width:1;stroke-linecap:butt;stroke-linejoin:miter;stroke-miterlimit:4;stroke-dashoffset:0;stroke-opacity:1"
         d="m 210,60 60,0 0,60 -60,0 0,-60 z"
         id="rect2256" />
      <path
         style="font-style:normal;font-variant:normal;font-weight:bold;font-stretch:normal;font-size:24px;line-height:125%;font-family:'Swis721 BT';text-align:center;writing-mode:lr-tb;text-anchor:middle;fill:#000000;fill-opacity:1;stroke:none;stroke-width:1px;stroke-linecap:butt;stroke-linejoin:miter;stroke-opacity:1"
         d="m 227.05078,90 0,-17.261718 12.52734,0 0,3 -9.02343,0 0,3.679687 8.25,0 0,2.953125 -8.25,0 0,4.441406 9.44531,0 0,3.1875 -12.94922,0"
         id="text5492" />
    </g>
    <g
       id="r">
      <path
         style="fill:#000000;fill-opacity:0;fill-rule:evenodd;stroke:#000000;stroke-width:1;stroke-linecap:butt;stroke-linejoin:miter;stroke-miterlimit:4;stroke-dashoffset:0;stroke-opacity:1"
         d="m 270,60 60,0 0,60 -60,0 0,-60 z"
         id="rect2258" />
      <path
         style="font-style:normal;font-variant:normal;font-weight:bold;font-stretch:normal;font-size:24px;line-height:125%;font-family:'Swis721 BT';text-align:center;writing-mode:lr-tb;text-anchor:middle;fill:#000000;fill-opacity:1;stroke:none;stroke-width:1px;stroke-linecap:butt;stroke-linejoin:miter;stroke-opacity:1"
         d="m 289.32422,80.285157 4.17188,0 c 0.90623,9e-6 1.5703,-0.183584 1.99218,-0.550782 0.42968,-0.367176 0.64452,-0.945301 0.64453,-1.734375 -1e-5,-0.749987 -0.20704,-1.316393 -0.62109,-1.699218 -0.41407,-0.390611 -1.03126,-0.585924 -1.85156,-0.585938 l -4.33594,0 0,4.570313 M 285.77344,90 l 0,-17.261718 8.36719,0 c 1.8828,1.7e-5 3.27733,0.40236 4.18359,1.207031 0.90623,0.804703 1.35936,2.03517 1.35938,3.691406 -2e-5,1.054699 -0.22268,1.933604 -0.66797,2.636719 -0.43752,0.703134 -1.07033,1.183602 -1.89844,1.441406 0.74998,0.265633 1.28123,0.671883 1.59375,1.21875 0.3203,0.546882 0.50389,1.398443 0.55078,2.554688 l 0.0703,2.039062 c -10e-6,0.01563 -10e-6,0.03906 0,0.07031 0.0234,1.031251 0.24608,1.65625 0.66797,1.875 L 300,90 l -3.89062,0 c -0.12502,-0.242187 -0.22267,-0.539062 -0.29297,-0.890625 -0.0625,-0.359373 -0.10158,-0.785154 -0.11719,-1.277343 l -0.0469,-1.816407 c -0.0391,-1.070307 -0.2422,-1.792963 -0.60938,-2.167968 -0.35939,-0.374994 -1.01173,-0.562494 -1.95703,-0.5625 l -3.76172,0 0,6.714843 -3.55078,0"
         id="text5500" />
    </g>
    <g
       id="t">
      <path
         style="fill:#000000;fill-opacity:0;fill-rule:evenodd;stroke:#000000;stroke-width:1;stroke-linecap:butt;stroke-linejoin:miter;stroke-miterlimit:4;stroke-dashoffset:0;stroke-opacity:1"
         d="m 330,60 60,0 0,60 -60,0 0,-60 z"
         id="rect2262" />
      <path
         style="font-style:normal;font-variant:normal;font-weight:bold;font-stretch:normal;font-size:24px;line-height:125%;font-family:'Swis721 BT';text-align:center;writing-mode:lr-tb;text-anchor:middle;fill:#000000;fill-opacity:1;stroke:none;stroke-width:1px;stroke-linecap:butt;stroke-linejoin:miter;stroke-opacity:1"
         d="m 351.36328,90 0,-14.179687 -5.1211,0 0,-3.082031 13.75782,0 0,3.082031 -5.08594,0 0,14.179687 -3.55078,0"
         id="text5504" />
    </g>
    <g
       id="y">
      <path
         style="fill:#000000;fill-opacity:0;fill-rule:evenodd;stroke:#000000;stroke-width:1;stroke-linecap:butt;stroke-linejoin:miter;stroke-miterlimit:4;stroke-dashoffset:0;stroke-opacity:1"
         d="m 390,60 60,0 0,60 -60,0 0,-60 z"
         id="rect2264" />
      <path
         style="font-style:normal;font-variant:normal;font-weight:bold;font-stretch:normal;font-size:24px;line-height:125%;font-family:'Swis721 BT';text-align:center;writing-mode:lr-tb;text-anchor:middle;fill:#000000;fill-opacity:1;stroke:none;stroke-width:1px;stroke-linecap:butt;stroke-linejoin:miter;stroke-opacity:1"
         d="m 414.31641,90 -3.55078,0 0,-6.43359 -6.26953,-10.82813 4.34765,0 3.69141,7.44141 3.41016,-7.44141 4.05468,0 -5.68359,10.82813 0,6.43359"
         id="text5518" />
    </g>
    <g
       id="u">
      <path
         style="fill:#000000;fill-opacity:0;fill-rule:evenodd;stroke:#000000;stroke-width:1;stroke-linecap:butt;stroke-linejoin:miter;stroke-miterlimit:4;stroke-dashoffset:0;stroke-opacity:1"
         d="m 450,60 60,0 0,60 -60,0 0,-60 z"
         id="rect2266" />
      <path
         style="font-style:normal;font-variant:normal;font-weight:bold;font-stretch:normal;font-size:24px;line-height:125%;font-family:'Swis721 BT';text-align:center;writing-mode:lr-tb;text-anchor:middle;fill:#000000;fill-opacity:1;stroke:none;stroke-width:1px;stroke-linecap:butt;stroke-linejoin:miter;stroke-opacity:1"
         d="m 466.17188,72.210938 3.58594,0 0,10.828125 c -10e-6,1.335942 0.26561,2.312504 0.79687,2.929687 0.53124,0.609378 1.37499,0.914065 2.53125,0.914063 1.17187,2e-6 2.02343,-0.304685 2.55469,-0.914063 0.53905,-0.609371 0.80858,-1.585932 0.80859,-2.929687 l 0,-10.828125 3.55078,0 0,11.214844 c -10e-6,2.117191 -0.59376,3.742189 -1.78125,4.875 C 477.03905,89.433594 475.33593,90 473.10938,90 c -2.2422,0 -3.96094,-0.5625 -5.15625,-1.6875 -1.1875,-1.13281 -1.78125,-2.761715 -1.78125,-4.886718 l 0,-11.214844"
         id="text5522" />
    </g>
    <g
       id="i">
      <path
         style="fill:#000000;fill-opacity:0;fill-rule:evenodd;stroke:#000000;stroke-width:1;stroke-linecap:butt;stroke-linejoin:miter;stroke-miterlimit:4;stroke-dashoffset:0;stroke-opacity:1"
         d="m 510,60 60,0 0,60 -60,0 0,-60 z"
         id="rect2270" />
      <path
         style="font-style:normal;font-variant:normal;font-weight:bold;font-stretch:normal;font-size:24px;line-height:125%;font-family:'Swis721 BT';text-align:center;writing-mode:lr-tb;text-anchor:middle;fill:#000000;fill-opacity:1;stroke:none;stroke-width:1px;stroke-linecap:butt;stroke-linejoin:miter;stroke-opacity:1"
         d="m 531.65897,88.083899 0,-17.261718 3.55078,0 0,17.261718 -3.55078,0"
         id="text5526" />
    </g>
    <g
       id="o">
      <path
         style="fill:#000000;fill-opacity:0;fill-rule:evenodd;stroke:#000000;stroke-width:1;stroke-linecap:butt;stroke-linejoin:miter;stroke-miterlimit:4;stroke-dashoffset:0;stroke-opacity:1"
         d="m 570,60 60,0 0,60 -60,0 0,-60 z"
         id="rect2272" />
      <path
         style="font-style:normal;font-variant:normal;font-weight:bold;font-stretch:normal;font-size:24px;line-height:125%;font-family:'Swis721 BT';text-align:center;writing-mode:lr-tb;text-anchor:middle;fill:#000000;fill-opacity:1;stroke:none;stroke-width:1px;stroke-linecap:butt;stroke-linejoin:miter;stroke-opacity:1"
         d="m 585.93189,78.832202 c 0,1.898444 0.42187,3.375005 1.26563,4.429688 0.84374,1.046878 2.02343,1.570315 3.53906,1.570312 1.53124,3e-6 2.72265,-0.523434 3.57422,-1.570312 0.85155,-1.054683 1.27733,-2.531244 1.27734,-4.429688 -10e-6,-1.898427 -0.42579,-3.371082 -1.27734,-4.417969 -0.85157,-1.054673 -2.04298,-1.582016 -3.57422,-1.582031 -1.51563,1.5e-5 -2.69532,0.523452 -3.53906,1.570313 -0.84376,1.046886 -1.26563,2.523448 -1.26563,4.429687 m -3.62109,0 c 0,-2.789051 0.75781,-4.999986 2.27344,-6.632812 1.52343,-1.640609 3.57421,-2.46092 6.15234,-2.460938 2.57811,1.8e-5 4.62889,0.820329 6.15235,2.460938 1.53123,1.640638 2.29685,3.851573 2.29687,6.632812 -2e-5,2.781256 -0.76564,4.992191 -2.29687,6.632813 -1.52346,1.640625 -3.57424,2.460937 -6.15235,2.460937 -2.57813,0 -4.62891,-0.820312 -6.15234,-2.460937 -1.51563,-1.640622 -2.27344,-3.851557 -2.27344,-6.632813"
         id="text5530" />
    </g>
    <g
       id="p">
      <path
         style="fill:#000000;fill-opacity:0;fill-rule:evenodd;stroke:#000000;stroke-width:1;stroke-linecap:butt;stroke-linejoin:miter;stroke-miterlimit:4;stroke-dashoffset:0;stroke-opacity:1"
         d="m 630,60 60,0 0,60 -60,0 0,-60 z"
         id="rect2274" />
      <path
         style="font-style:normal;font-variant:normal;font-weight:bold;font-stretch:normal;font-size:24px;line-height:125%;font-family:'Swis721 BT';text-align:center;writing-mode:lr-tb;text-anchor:middle;fill:#000000;fill-opacity:1;stroke:none;stroke-width:1px;stroke-linecap:butt;stroke-linejoin:miter;stroke-opacity:1"
         d="m 650.59901,79.15158 3.4336,0 c 0.92967,9e-6 1.60545,-0.195303 2.02734,-0.585937 0.42186,-0.398428 0.6328,-1.035146 0.63281,-1.910157 -10e-6,-0.8203 -0.20704,-1.441393 -0.62109,-1.863281 -0.41407,-0.421861 -1.03126,-0.632798 -1.85156,-0.632812 l -3.6211,0 0,4.992187 m -0.0234,3.128906 0,6.140625 -3.55079,0 0,-17.261718 7.67579,0 c 1.81248,1.7e-5 3.18358,0.472673 4.11328,1.417968 0.93748,0.937515 1.40623,2.31642 1.40625,4.136719 -2e-5,1.78126 -0.45705,3.156259 -1.3711,4.125 -0.91407,0.960944 -2.21876,1.441413 -3.91406,1.441406 l -4.35937,0"
         id="text5534" />
    </g>
    <g
       id="a">
      <path
         style="fill:#000000;fill-opacity:0;fill-rule:evenodd;stroke:#000000;stroke-width:1;stroke-linecap:butt;stroke-linejoin:miter;stroke-miterlimit:4;stroke-dashoffset:0;stroke-opacity:1"
         d="m 90,60 60,0 0,60 -60,0 0,-60 z"
         id="rect2252" />
      <path
         style="font-style:normal;font-variant:normal;font-weight:bold;font-stretch:normal;font-size:24px;line-height:125%;font-family:'Swis721 BT';text-align:center;writing-mode:lr-tb;text-anchor:middle;fill:#000000;fill-opacity:1;stroke:none;stroke-width:1px;stroke-linecap:butt;stroke-linejoin:miter;stroke-opacity:1"
         d="m 111.73828,76.19531 -2.39062,7.34766 4.79297,0 -2.40235,-7.34766 m -2.0625,-3.45703 4.10157,0 L 120,90 l -3.72656,0 -1.17188,-3.55078 -6.6914,0 -1.13672,3.55078 -3.73828,0 6.14062,-17.26172"
         id="text5641" />
    </g>
    <g
       id="s">
      <path
         style="fill:#000000;fill-opacity:0;fill-rule:evenodd;stroke:#000000;stroke-width:1;stroke-linecap:butt;stroke-linejoin:miter;stroke-miterlimit:4;stroke-dashoffset:0;stroke-opacity:1"
         d="m 165,120 60,0 0,60 -60,0 0,-60 z"
         id="rect2296" />
      <path
         style="font-style:normal;font-variant:normal;font-weight:bold;font-stretch:normal;font-size:24px;line-height:125%;font-family:'Swis721 BT';text-align:center;writing-mode:lr-tb;text-anchor:middle;fill:#000000;fill-opacity:1;stroke:none;stroke-width:1px;stroke-linecap:butt;stroke-linejoin:miter;stroke-opacity:1"
         d="m 176.81267,143.08322 3.50391,0 c 0.1328,0.94532 0.51952,1.64844 1.16015,2.10937 0.64062,0.45313 1.5664,0.67969 2.77735,0.67969 1.03124,0 1.80858,-0.18359 2.33203,-0.55078 0.52342,-0.36718 0.78514,-0.91015 0.78515,-1.62891 -1e-5,-1.04687 -1.50391,-1.91405 -4.51172,-2.60156 -0.0391,-0.008 -0.0742,-0.0156 -0.10546,-0.0234 -0.0781,-0.0156 -0.19923,-0.043 -0.36329,-0.082 -1.60938,-0.35155 -2.75781,-0.74608 -3.44531,-1.18359 -0.60938,-0.39062 -1.07422,-0.91405 -1.39453,-1.57031 -0.32031,-0.66406 -0.48047,-1.4453 -0.48047,-2.34375 0,-1.67968 0.57031,-2.96483 1.71094,-3.85547 1.14062,-0.89842 2.78906,-1.34764 4.94531,-1.34766 2.01562,2e-5 3.58983,0.47658 4.72266,1.42969 1.14061,0.95314 1.74217,2.29689 1.80469,4.03125 l -3.41016,0 c -0.0625,-0.83593 -0.38282,-1.47264 -0.96094,-1.91016 -0.57813,-0.43748 -1.40235,-0.65623 -2.47265,-0.65625 -0.9297,2e-5 -1.64845,0.18361 -2.15625,0.55078 -0.50001,0.35939 -0.75001,0.87502 -0.75,1.54688 -10e-6,0.91407 0.98046,1.59767 2.9414,2.05078 0.53124,0.12501 0.94531,0.22267 1.24219,0.29297 1.2578,0.32032 2.14843,0.57032 2.67187,0.75 0.53124,0.1797 0.99218,0.37891 1.38282,0.59766 0.70311,0.39063 1.23045,0.91016 1.58203,1.55859 0.35155,0.64063 0.52733,1.41016 0.52734,2.30859 -1e-5,1.79688 -0.60548,3.19141 -1.8164,4.1836 -1.21095,0.98437 -2.91798,1.47656 -5.1211,1.47656 -2.17188,0 -3.875,-0.50391 -5.10937,-1.51172 -1.23438,-1.00781 -1.89844,-2.4414 -1.99219,-4.30078"
         id="text5645" />
    </g>
    <g
       id="d">
      <path
         style="fill:#000000;fill-opacity:0;fill-rule:evenodd;stroke:#000000;stroke-width:1;stroke-linecap:butt;stroke-linejoin:miter;stroke-miterlimit:4;stroke-dashoffset:0;stroke-opacity:1"
         d="m 225,120 60,0 0,60 -60,0 0,-60 z"
         id="rect2298" />
      <path
         style="font-style:normal;font-variant:normal;font-weight:bold;font-stretch:normal;font-size:24px;line-height:125%;font-family:'Swis721 BT';text-align:center;writing-mode:lr-tb;text-anchor:middle;fill:#000000;fill-opacity:1;stroke:none;stroke-width:1px;stroke-linecap:butt;stroke-linejoin:miter;stroke-opacity:1"
         d="m 243.48047,146.88281 2.84766,0 c 1.64842,0 2.83983,-0.42968 3.57421,-1.28906 0.74218,-0.86718 1.11327,-2.26953 1.11329,-4.20703 -2e-5,-1.92968 -0.34377,-3.34765 -1.03125,-4.25391 -0.68752,-0.90623 -1.76173,-1.35936 -3.22266,-1.35937 l -3.28125,0 0,11.10937 M 240,150 l 0,-17.26172 6.76172,0 c 2.64843,2e-5 4.62108,0.71486 5.91797,2.14453 1.30467,1.4297 1.95701,3.59767 1.95703,6.50391 -2e-5,1.57813 -0.2422,2.96875 -0.72656,4.17187 -0.47658,1.20313 -1.17189,2.17188 -2.08594,2.90625 -0.68751,0.54688 -1.46876,0.94141 -2.34375,1.1836 C 248.60546,149.88281 247.3789,150 245.80078,150 L 240,150"
         id="text5649" />
    </g>
    <g
       id="f">
      <path
         style="fill:#000000;fill-opacity:0;fill-rule:evenodd;stroke:#000000;stroke-width:1;stroke-linecap:butt;stroke-linejoin:miter;stroke-miterlimit:4;stroke-dashoffset:0;stroke-opacity:1"
         d="m 285,120 60,0 0,60 -60,0 0,-60 z"
         id="rect2300" />
      <path
         style="font-style:normal;font-variant:normal;font-weight:bold;font-stretch:normal;font-size:24px;line-height:125%;font-family:'Swis721 BT';text-align:center;writing-mode:lr-tb;text-anchor:middle;fill:#000000;fill-opacity:1;stroke:none;stroke-width:1px;stroke-linecap:butt;stroke-linejoin:miter;stroke-opacity:1"
         d="m 300,150 0,-17.26172 12.04688,0 0,3 -8.54297,0 0,3.91406 7.48828,0 0,3 -7.48828,0 0,7.34766 L 300,150"
         id="text5653" />
    </g>
    <g
       id="g">
      <path
         style="fill:#000000;fill-opacity:0;fill-rule:evenodd;stroke:#000000;stroke-width:1;stroke-linecap:butt;stroke-linejoin:miter;stroke-miterlimit:4;stroke-dashoffset:0;stroke-opacity:1"
         d="m 345,120 60,0 0,60 -60,0 0,-60 z"
         id="rect2302" />
      <path
         style="font-style:normal;font-variant:normal;font-weight:bold;font-stretch:normal;font-size:24px;line-height:125%;font-family:'Swis721 BT';text-align:center;writing-mode:lr-tb;text-anchor:middle;fill:#000000;fill-opacity:1;stroke:none;stroke-width:1px;stroke-linecap:butt;stroke-linejoin:miter;stroke-opacity:1"
         d="m 373.17188,147.48047 c -0.64064,0.86719 -1.37111,1.50391 -2.19141,1.91016 -0.81251,0.40624 -1.76954,0.60937 -2.87109,0.60937 -2.41407,0 -4.3711,-0.83594 -5.8711,-2.50781 C 360.74609,145.8125 360,143.60938 360,140.88281 c 0,-2.74999 0.74609,-4.9492 2.23828,-6.59765 1.49219,-1.64842 3.48047,-2.47264 5.96485,-2.47266 2.16405,2e-5 3.92967,0.51955 5.29687,1.55859 1.36717,1.03127 2.17967,2.45314 2.4375,4.26563 l -3.62109,0 c -0.21876,-0.89843 -0.66798,-1.58202 -1.34766,-2.05078 -0.67188,-0.46874 -1.55079,-0.70311 -2.63672,-0.70313 -1.44532,2e-5 -2.58203,0.53127 -3.41015,1.59375 -0.82032,1.0547 -1.23048,2.51564 -1.23047,4.38282 -1e-5,1.875 0.42968,3.34375 1.28906,4.40625 0.85937,1.0625 2.03906,1.59375 3.53906,1.59375 1.12499,0 2.0664,-0.33203 2.82422,-0.9961 0.7578,-0.66406 1.22655,-1.57421 1.40625,-2.73047 l -3.91406,0 0,-2.95312 7.14844,0 0,9.33984 -2.37891,0 -0.43359,-2.03906"
         id="text5657" />
    </g>
    <g
       id="g5542">
      <path
         style="fill:#000000;fill-opacity:0;fill-rule:evenodd;stroke:#000000;stroke-width:1;stroke-linecap:butt;stroke-linejoin:miter;stroke-miterlimit:4;stroke-dashoffset:0;stroke-opacity:1"
         d="M 405,120 L 465,120 L 465,180 L 405,180 L 405,120 z "
         id="rect2306" />
      <path
         style="font-size:24px;font-style:normal;font-variant:normal;font-weight:bold;font-stretch:normal;text-align:center;line-height:125%;writing-mode:lr-tb;text-anchor:middle;fill:#000000;fill-opacity:1;stroke:none;stroke-width:1px;stroke-linecap:butt;stroke-linejoin:miter;stroke-opacity:1;font-family:Swis721 BT"
         d="M 420,150 L 420,132.73828 L 423.57422,132.73828 L 423.57422,139.17187 L 430.69922,139.17187 L 430.69922,132.73828 L 434.27344,132.73828 L 434.27344,150 L 430.69922,150 L 430.69922,142.34766 L 423.57422,142.34766 L 423.57422,150 L 420,150"
         id="text5661" />
    </g>
    <g
       id="j">
      <path
         style="fill:#000000;fill-opacity:0;fill-rule:evenodd;stroke:#000000;stroke-width:1;stroke-linecap:butt;stroke-linejoin:miter;stroke-miterlimit:4;stroke-dashoffset:0;stroke-opacity:1"
         d="m 465,120 60,0 0,60 -60,0 0,-60 z"
         id="rect2308" />
      <path
         style="font-style:normal;font-variant:normal;font-weight:bold;font-stretch:normal;font-size:24px;line-height:125%;font-family:'Swis721 BT';text-align:center;writing-mode:lr-tb;text-anchor:middle;fill:#000000;fill-opacity:1;stroke:none;stroke-width:1px;stroke-linecap:butt;stroke-linejoin:miter;stroke-opacity:1"
         d="m 480,143.08594 3.43359,0 0,2.08594 c 0,0.60156 0.17969,1.0625 0.53907,1.38281 0.35937,0.3125 0.87499,0.46875 1.54687,0.46875 0.73437,0 1.24609,-0.1914 1.53516,-0.57422 0.28905,-0.38281 0.43358,-1.10156 0.43359,-2.15625 l 0,-12.03515 3.55078,0 0,12.19922 c -1e-5,1.09375 -0.0664,1.89844 -0.19922,2.41406 -0.12501,0.50781 -0.33595,0.95703 -0.63281,1.34765 -0.45314,0.57813 -1.07423,1.01954 -1.86328,1.32422 -0.78907,0.30469 -1.71485,0.45703 -2.77734,0.45703 -0.97657,0 -1.83985,-0.13281 -2.58985,-0.39843 -0.75,-0.26563 -1.375,-0.66016 -1.875,-1.1836 -0.39844,-0.42187 -0.68359,-0.89062 -0.85547,-1.40625 C 480.08203,146.48829 480,145.62891 480,144.4336 l 0,-1.34766"
         id="text5665" />
    </g>
    <g
       id="k">
      <path
         style="fill:#000000;fill-opacity:0;fill-rule:evenodd;stroke:#000000;stroke-width:1;stroke-linecap:butt;stroke-linejoin:miter;stroke-miterlimit:4;stroke-dashoffset:0;stroke-opacity:1"
         d="m 525,120 60,0 0,60 -60,0 0,-60 z"
         id="rect2312" />
      <path
         style="font-style:normal;font-variant:normal;font-weight:bold;font-stretch:normal;font-size:24px;line-height:125%;font-family:'Swis721 BT';text-align:center;writing-mode:lr-tb;text-anchor:middle;fill:#000000;fill-opacity:1;stroke:none;stroke-width:1px;stroke-linecap:butt;stroke-linejoin:miter;stroke-opacity:1"
         d="m 540,150 0,-17.26172 3.55078,0 0,7.08984 6.73828,-7.08984 4.44141,0 -6.89063,6.98438 7.51172,10.27734 -4.33594,0 -5.625,-7.89844 -1.83984,1.82813 0,6.07031 L 540,150"
         id="text5669" />
    </g>
    <g
       id="l">
      <path
         style="fill:#000000;fill-opacity:0;fill-rule:evenodd;stroke:#000000;stroke-width:1;stroke-linecap:butt;stroke-linejoin:miter;stroke-miterlimit:4;stroke-dashoffset:0;stroke-opacity:1"
         d="m 585,120 60,0 0,60 -60,0 0,-60 z"
         id="rect2314" />
      <path
         style="font-style:normal;font-variant:normal;font-weight:bold;font-stretch:normal;font-size:24px;line-height:125%;font-family:'Swis721 BT';text-align:center;writing-mode:lr-tb;text-anchor:middle;fill:#000000;fill-opacity:1;stroke:none;stroke-width:1px;stroke-linecap:butt;stroke-linejoin:miter;stroke-opacity:1"
         d="m 600,150 0,-17.26172 3.55078,0 0,14.07422 8.42578,0 0,3.1875 L 600,150"
         id="text5673" />
    </g>
    <g
       id="z">
      <path
         style="fill:#000000;fill-opacity:0;fill-rule:evenodd;stroke:#000000;stroke-width:1;stroke-linecap:butt;stroke-linejoin:miter;stroke-miterlimit:4;stroke-dashoffset:0;stroke-opacity:1"
         d="m 150,60 60,0 0,60 -60,0 0,-60 z"
         id="rect2254" />
      <path
         style="font-style:normal;font-variant:normal;font-weight:bold;font-stretch:normal;font-size:24px;line-height:125%;font-family:'Swis721 BT';text-align:center;writing-mode:lr-tb;text-anchor:middle;fill:#000000;fill-opacity:1;stroke:none;stroke-width:1px;stroke-linecap:butt;stroke-linejoin:miter;stroke-opacity:1"
         d="m 166.30078,90 0,-3 9.38672,-11.13281 -9.19922,0 0,-3.12891 13.51172,0 0,3 -9.41016,11.14453 9.19922,0 0,3.11719 -13.48828,0"
         id="text5679" />
    </g>
    <g
       id="x">
      <path
         style="fill:#000000;fill-opacity:0;fill-rule:evenodd;stroke:#000000;stroke-width:1;stroke-linecap:butt;stroke-linejoin:miter;stroke-miterlimit:4;stroke-dashoffset:0;stroke-opacity:1"
         d="m 195,180 60,0 0,60 -60,0 0,-60 z"
         id="rect2326" />
      <path
         style="font-style:normal;font-variant:normal;font-weight:bold;font-stretch:normal;font-size:24px;line-height:125%;font-family:'Swis721 BT';text-align:center;writing-mode:lr-tb;text-anchor:middle;fill:#000000;fill-opacity:1;stroke:none;stroke-width:1px;stroke-linecap:butt;stroke-linejoin:miter;stroke-opacity:1"
         d="m 210,210 5.42579,-8.8125 -5.42579,-8.44922 4.10157,0 3.52734,6.03516 3.50391,-6.03516 4.125,0 -5.42578,8.42578 5.42578,8.83594 -4.10157,0 -3.52734,-5.97656 L 214.10157,210 210,210"
         id="text5683" />
    </g>
    <g
       id="c">
      <path
         style="fill:#000000;fill-opacity:0;fill-rule:evenodd;stroke:#000000;stroke-width:1;stroke-linecap:butt;stroke-linejoin:miter;stroke-miterlimit:4;stroke-dashoffset:0;stroke-opacity:1"
         d="m 255,180 60,0 0,60 -60,0 0,-60 z"
         id="rect2330" />
      <path
         style="font-style:normal;font-variant:normal;font-weight:bold;font-stretch:normal;font-size:24px;line-height:125%;font-family:'Swis721 BT';text-align:center;writing-mode:lr-tb;text-anchor:middle;fill:#000000;fill-opacity:1;stroke:none;stroke-width:1px;stroke-linecap:butt;stroke-linejoin:miter;stroke-opacity:1"
         d="m 285.75,203.58984 c -0.13283,1.96095 -0.89064,3.51954 -2.27344,4.67579 -1.37501,1.15625 -3.17188,1.73437 -5.39062,1.73437 -2.5547,0 -4.54298,-0.79687 -5.96485,-2.39062 C 270.70703,206.01563 270,203.78126 270,200.90625 c 0,-2.93749 0.72265,-5.18749 2.16797,-6.75 1.44531,-1.56248 3.52343,-2.34373 6.23437,-2.34375 2.20312,2e-5 3.9414,0.53908 5.21485,1.61719 1.28123,1.07033 1.98436,2.58595 2.10937,4.54687 l -3.5039,0 c -0.14845,-0.97655 -0.54689,-1.71873 -1.19532,-2.22656 -0.64845,-0.51561 -1.52344,-0.77342 -2.625,-0.77344 -1.5625,2e-5 -2.75,0.50392 -3.5625,1.51172 -0.8125,1.00783 -1.21875,2.48048 -1.21875,4.41797 0,1.87501 0.40234,3.32422 1.20704,4.34766 0.81249,1.02344 1.96483,1.53516 3.45703,1.53515 1.07811,1e-5 1.96092,-0.27343 2.64843,-0.82031 0.68749,-0.55468 1.1328,-1.34765 1.33594,-2.37891 l 3.48047,0"
         id="text5687" />
    </g>
    <g
       id="v">
      <path
         style="fill:#000000;fill-opacity:0;fill-rule:evenodd;stroke:#000000;stroke-width:1;stroke-linecap:butt;stroke-linejoin:miter;stroke-miterlimit:4;stroke-dashoffset:0;stroke-opacity:1"
         d="m 315,180 60,0 0,60 -60,0 0,-60 z"
         id="rect2334" />
      <path
         style="font-style:normal;font-variant:normal;font-weight:bold;font-stretch:normal;font-size:24px;line-height:125%;font-family:'Swis721 BT';text-align:center;writing-mode:lr-tb;text-anchor:middle;fill:#000000;fill-opacity:1;stroke:none;stroke-width:1px;stroke-linecap:butt;stroke-linejoin:miter;stroke-opacity:1"
         d="M 335.95313,210 330,192.73828 l 3.9375,0 3.66797,12.91406 3.73828,-12.91406 3.89063,0 -5.88281,17.26172 -3.39844,0"
         id="text5691" />
    </g>
    <g
       id="b">
      <path
         style="fill:#000000;fill-opacity:0;fill-rule:evenodd;stroke:#000000;stroke-width:1;stroke-linecap:butt;stroke-linejoin:miter;stroke-miterlimit:4;stroke-dashoffset:0;stroke-opacity:1"
         d="m 375,180 60,0 0,60 -60,0 0,-60 z"
         id="rect2336" />
      <path
         style="font-style:normal;font-variant:normal;font-weight:bold;font-stretch:normal;font-size:24px;line-height:125%;font-family:'Swis721 BT';text-align:center;writing-mode:lr-tb;text-anchor:middle;fill:#000000;fill-opacity:1;stroke:none;stroke-width:1px;stroke-linecap:butt;stroke-linejoin:miter;stroke-opacity:1"
         d="m 393.39843,206.88281 4.20703,0 c 0.99218,0 1.71484,-0.17968 2.16797,-0.53906 0.45312,-0.35937 0.67968,-0.92578 0.67969,-1.69922 -1e-5,-0.80468 -0.22267,-1.38281 -0.66797,-1.73437 -0.44532,-0.35937 -1.1797,-0.53906 -2.20312,-0.53907 l -4.1836,0 0,4.51172 m 0,-7.46484 4.05469,0 c 0.87499,1e-5 1.51561,-0.14843 1.92188,-0.44531 0.40623,-0.30468 0.60936,-0.78124 0.60937,-1.42969 -1e-5,-0.6328 -0.19923,-1.08983 -0.59766,-1.3711 -0.39063,-0.28904 -1.04298,-0.43358 -1.95703,-0.43359 l -4.03125,0 0,3.67969 M 390,210 l 0,-17.26172 8.13281,0 c 1.76561,2e-5 3.10936,0.37502 4.03125,1.125 0.92967,0.7422 1.39451,1.82423 1.39453,3.24609 -2e-5,0.87502 -0.17189,1.60548 -0.51563,2.19141 -0.34376,0.58595 -0.85939,1.03907 -1.54687,1.35938 0.89061,0.35938 1.55467,0.87891 1.99219,1.55859 0.44529,0.67188 0.66795,1.51172 0.66797,2.51953 -2e-5,1.67969 -0.5469,2.97657 -1.64063,3.89063 C 401.42186,209.54297 399.87108,210 397.86328,210 L 390,210"
         id="text5695" />
    </g>
    <g
       id="n">
      <path
         style="fill:#000000;fill-opacity:0;fill-rule:evenodd;stroke:#000000;stroke-width:1;stroke-linecap:butt;stroke-linejoin:miter;stroke-miterlimit:4;stroke-dashoffset:0;stroke-opacity:1"
         d="m 435,180 60,0 0,60 -60,0 0,-60 z"
         id="rect2338" />
      <path
         style="font-style:normal;font-variant:normal;font-weight:bold;font-stretch:normal;font-size:24px;line-height:125%;font-family:'Swis721 BT';text-align:center;writing-mode:lr-tb;text-anchor:middle;fill:#000000;fill-opacity:1;stroke:none;stroke-width:1px;stroke-linecap:butt;stroke-linejoin:miter;stroke-opacity:1"
         d="m 450,210 0,-17.26172 3.71484,0 7.00782,11.85938 0,-11.85938 3.5039,0 0,17.26172 -3.66797,0 -7.05468,-11.85938 0,11.85938 L 450,210"
         id="text5699" />
    </g>
    <g
       id="m">
      <path
         style="fill:#000000;fill-opacity:0;fill-rule:evenodd;stroke:#000000;stroke-width:1;stroke-linecap:butt;stroke-linejoin:miter;stroke-miterlimit:4;stroke-dashoffset:0;stroke-opacity:1"
         d="m 645,120 60,0 0,60 -60,0 0,-60 z"
         id="rect2316" />
      <path
         style="font-style:normal;font-variant:normal;font-weight:bold;font-stretch:normal;font-size:24px;line-height:125%;font-family:'Swis721 BT';text-align:center;writing-mode:lr-tb;text-anchor:middle;fill:#000000;fill-opacity:1;stroke:none;stroke-width:1px;stroke-linecap:butt;stroke-linejoin:miter;stroke-opacity:1"
         d="m 660,150 0,-17.26172 5.25,0 3.43359,13.13672 3.38672,-13.13672 5.27344,0 0,17.26172 -3.32813,0 0,-13.92188 -3.50391,13.92188 -3.63281,0 -3.55078,-13.92188 0,13.92188 L 660,150"
         id="text5703" />
    </g>
    <g
       id="g5562">
      <path
         style="fill:#000000;fill-opacity:0.1254902;fill-rule:evenodd;stroke:#000000;stroke-width:1.00000048;stroke-linecap:butt;stroke-linejoin:miter;stroke-miterlimit:4;stroke-dashoffset:0;stroke-opacity:1"
         d="m 705,120 -15,0 0,-60 90,0 4.5e-4,120 -75.11073,0 L 705,120 Z"
         id="rect2320" />
      <g
         id="g10181"
         transform="translate(-46.5,-60)">
        <text
           id="text5737"
           y="140.60938"
           x="791.5"
           style="font-style:normal;font-variant:normal;font-weight:bold;font-stretch:normal;font-size:16px;line-height:125%;font-family:'Swis721 BT';text-align:center;writing-mode:lr-tb;text-anchor:middle;fill:#000000;fill-opacity:1;stroke:none;stroke-width:1px;stroke-linecap:butt;stroke-linejoin:miter;stroke-opacity:1"
           xml:space="preserve"><tspan
             y="140.60938"
             x="791.5"
             id="tspan5739">Enter</tspan></text>
        <path
           style="fill:#000000;fill-opacity:1;fill-rule:evenodd;stroke:none;stroke-width:1px;stroke-linecap:butt;stroke-linejoin:miter;stroke-opacity:1"
           d="m 787.5,172.5 0,-15 -15,7.5 15,7.5 z"
           id="path5745" />
        <path
           id="path5747"
           d="m 810,150 0,15 -30,0"
           style="fill:none;fill-opacity:0.75;fill-rule:evenodd;stroke:#000000;stroke-width:3;stroke-linecap:butt;stroke-linejoin:miter;stroke-miterlimit:4;stroke-dasharray:none;stroke-opacity:1" />
      </g>
    </g>

  </g>
</svg>
